<?xml version="1.0" encoding="utf-8"?>
<!-- Generator: Adobe Illustrator 25.4.1, SVG Export Plug-In . SVG Version: 6.00 Build 0)  -->
<svg version="1.1" id="Layer_1" xmlns="http://www.w3.org/2000/svg" xmlns:xlink="http://www.w3.org/1999/xlink" x="0px" y="0px"
	 viewBox="0 0 1798.5 600" style="enable-background:new 0 0 1798.5 600;" xml:space="preserve">
<style type="text/css">
	.st0{fill:#ADADAD;}
	.st1{fill:#FFFFFF;}
	.st2{opacity:0.6;fill:url(#SVGID_1_);enable-background:new    ;}
	.st3{fill:#1D1D1B;}
	.st4{fill:#FF3D3D;}
	.st5{fill:#F43737;}
	.st6{fill:#F7F7F7;}
	.st7{fill:#E2E2E2;}
	.st8{enable-background:new    ;}
	.st9{fill:#424242;}
</style>
<g>
	<polygon class="st0" points="97.86,249.44 298.13,300 498.29,249.44 297.99,169.61 	"/>
</g>
<g>
	<path class="st1" d="M290.37,169.63c-73.74,0.74-124.77,41.72-129.61,104.64c-6.27,81.42,21.77,84.54,32.16,127.05
		c11.52,47.12-23.06,81.51,13.09,123.99c27.59,32.42,74.25,36,101.89,35.92c30.5-0.09,84.97-16.87,96.03-50.13
		c10.92-32.82-7.89-58.13,5.11-94s39.75-49.02,45.14-103.08C459.54,260.34,444.22,168.08,290.37,169.63z"/>
</g>
<linearGradient id="SVGID_1_" gradientUnits="userSpaceOnUse" x1="307.453" y1="803.2313" x2="307.453" y2="411.6107" gradientTransform="matrix(1 0 0 1 0 -242)">
	<stop  offset="0" style="stop-color:#29A3FF"/>
	<stop  offset="0.392" style="stop-color:#26A0FD"/>
	<stop  offset="0.6666" style="stop-color:#1D97F6"/>
	<stop  offset="0.9045" style="stop-color:#0E88EB"/>
	<stop  offset="1" style="stop-color:#0580E5"/>
</linearGradient>
<path class="st2" d="M290.37,169.63c-73.74,0.74-124.77,41.72-129.61,104.64c-6.27,81.42,21.77,84.54,32.16,127.05
	c11.52,47.12-23.06,81.51,13.09,123.99c27.59,32.42,74.25,36,101.89,35.92c30.5-0.09,84.97-16.87,96.03-50.13
	c10.92-32.82-7.89-58.13,5.11-94s39.75-49.02,45.14-103.08C459.54,260.34,444.22,168.08,290.37,169.63z"/>
<g>
	<circle class="st1" cx="250.33" cy="277.07" r="43.05"/>
</g>
<g>
	
		<ellipse transform="matrix(0.3162 -0.9487 0.9487 0.3162 -90.4557 409.0608)" class="st3" cx="238.55" cy="267.28" rx="25.44" ry="25.44"/>
</g>
<g>
	<circle class="st1" cx="361.17" cy="273.78" r="43.05"/>
</g>
<g>
	<circle class="st3" cx="372.36" cy="291.4" r="21.67"/>
</g>
<g>
	<polyline class="st1" points="348.5,335.62 338.76,356.43 325.74,335.62 	"/>
</g>
<g>
	<polyline class="st1" points="263.99,335.62 273.05,356.43 284.36,335.62 	"/>
</g>
<g>
	<path class="st1" d="M355.68,337.88H253.29c-1.25,0-2.26-1.01-2.26-2.26s1.01-2.26,2.26-2.26h102.38c1.25,0,2.26,1.01,2.26,2.26
		S356.93,337.88,355.68,337.88z"/>
</g>
<g>
	<path class="st4" d="M188.08,145.71l107.22-34.73l115.39,33.91c0,0,7.36-6.38,10.61-27.9c2.38-15.75,6.63-54.12-17.34-58.22
		c-32.33-5.53-76.81,14.23-89.48,15s-31.56,1.73-36.71-0.39s-48.91-17.16-71.18-17.21c-32.52-0.08-33.79,42.38-32.31,59.99
		C175.33,128.7,180.77,145.71,188.08,145.71z"/>
</g>
<g>
	<path class="st5" d="M297.29,117.52c19.33-0.88,35.84,4.55,36.41-18.2s-1.05-35.2-35.06-35.2c-27.28,0-36.04,9.08-36.04,26.98
		S269.46,118.8,297.29,117.52z"/>
</g>
<g>
	<polygon class="st6" points="88.83,187.52 97.86,249.44 298.01,186.36 298.01,93.93 	"/>
</g>
<g>
	<polygon class="st7" points="507.32,187.52 498.29,249.44 298.13,186.36 298.13,93.93 	"/>
</g>
<g>
	<polygon class="st5" points="379.49,130.33 373.63,210.15 423.2,225.78 436.13,155.66 	"/>
</g>
<g>
	<polygon class="st4" points="203.85,136.06 151.71,159.38 159.85,229.9 207.28,214.96 	"/>
</g>
<g class="st8">
	<path class="st9" d="M595.66,216.37v-83.66h41.17v83.28c0,15.67,7.74,23.98,20.96,23.98c13.6,0,21.53-8.31,21.53-24.17v-83.09
		h41.36v83.66c0,35.5-23.79,61-62.88,61C618.89,277.37,595.66,251.87,595.66,216.37z"/>
	<path class="st9" d="M872.88,273.78H833.6l-50.8-75.73h-0.19v75.73h-39.09V132.72h39.28l50.8,74.4h0.19v-74.4h39.09V273.78z"/>
	<path class="st9" d="M897.42,132.72h60.43c33.61,0,51.18,17.37,51.18,38.71c0,14.73-8.31,24.74-19.83,30.03v0.38
		c14.73,5.29,23.04,17,23.04,31.91c0,21.34-16.43,40.04-51.93,40.04h-62.88V132.72z M955.96,188.61c10.01,0,14.54-5.1,14.54-10.76
		c0-5.67-4.53-10.95-14.54-10.95h-17.75v21.72H955.96z M956.52,239.6c10.58,0,15.67-5.1,15.67-11.71s-5.29-11.71-15.49-11.71h-18.51
		v23.42H956.52z"/>
	<path class="st9" d="M1023.18,203.15c0-43.62,33.05-74.03,74.97-74.03c42.3,0,74.97,30.4,74.97,74.03
		c0,43.62-32.67,74.21-74.97,74.21C1056.04,277.37,1023.18,246.78,1023.18,203.15z M1131.57,203.15c0-23.42-16.43-36.64-33.43-36.64
		c-17.18,0-33.42,13.22-33.42,36.64c0,23.61,16.24,36.82,33.42,36.82C1115.14,239.98,1131.57,226.76,1131.57,203.15z"/>
	<path class="st9" d="M1214.47,203.34l-44.19-70.63h47.59l24.17,41.54l22.09-41.54h47.02l-43.81,70.44l44.38,70.63h-47.4
		l-24.36-41.54l-22.28,41.54h-47.02L1214.47,203.34z"/>
	<path class="st9" d="M1322.86,132.72h41.17v141.07h-41.17V132.72z"/>
	<path class="st9" d="M1517.93,273.78h-39.28l-50.8-75.73h-0.19v75.73h-39.09V132.72h39.28l50.8,74.4h0.19v-74.4h39.09V273.78z"/>
	<path class="st9" d="M1611.78,240.36c5.48,0,10.39-1.32,14.35-3.21v-39.28h37.2v63.07c-13.79,9.82-30.78,16.43-52.31,16.43
		c-40.6,0-75.54-28.52-75.54-74.03s35.31-74.21,75.54-74.21c18.88,0,33.8,4.72,45.32,11.33v39.66
		c-12.09-9.63-27.38-12.84-39.28-12.84c-25.3,0-40.03,16.81-40.03,37.01C1577.03,224.87,1591.57,240.36,1611.78,240.36z"/>
</g>
<g class="st8">
	<path class="st9" d="M677.99,500.38h-38.71l19.07-141.07h48.15l22.47,78.37h0.38l21.91-78.37h46.64l19.26,141.07h-39.09
		l-7.93-85.36h-0.76l-24.17,85.36h-34.56l-23.42-85.36h-0.76L677.99,500.38z"/>
	<path class="st9" d="M826.03,429.75c0-43.62,33.05-74.03,74.97-74.03c42.3,0,74.97,30.4,74.97,74.03
		c0,43.62-32.67,74.21-74.97,74.21C858.89,503.97,826.03,473.38,826.03,429.75z M934.43,429.75c0-23.42-16.43-36.64-33.42-36.64
		c-17.19,0-33.43,13.22-33.43,36.64c0,23.61,16.24,36.82,33.43,36.82C918,466.58,934.43,453.36,934.43,429.75z"/>
	<path class="st9" d="M1122.89,500.38h-39.28l-50.8-75.73h-0.19v75.73h-39.09V359.32h39.28l50.8,74.4h0.19v-74.4h39.09V500.38z"/>
	<path class="st9" d="M1236.94,366.11v36.26c-8.88-6.23-23.98-10.58-36.26-10.58c-11.14,0-16.81,3.59-16.81,8.31
		c0,4.91,6.23,7.18,17.37,11.14c18.88,6.61,44.57,15.49,44.57,45.51c0,26.82-20.21,46.64-55.71,46.64
		c-18.32,0-35.12-5.29-45.51-12.27v-38.15c10.2,8.31,25.68,14.92,40.6,14.92c12.65,0,18.51-4.72,18.51-10.01
		c0-6.8-9.63-9.82-21.15-13.97c-15.11-5.48-39.09-15.3-39.09-42.68c0-24.74,19.45-44.94,54.2-44.94
		C1212.96,356.29,1226.74,360.26,1236.94,366.11z"/>
	<path class="st9" d="M1291.51,396.52h-38.9v-37.2h118.78v37.2h-38.71v103.86h-41.17V396.52z"/>
	<path class="st9" d="M1387.06,359.32h97.44v36.64h-56.28v17h50.61v33.24h-50.61v17.56h56.28v36.64h-97.44V359.32z"/>
	<path class="st9" d="M1623.3,500.38h-48.53l-26.82-43.62H1547v43.62h-41.17V359.32h50.23c35.31,0,59.86,15.67,59.86,49.1
		c0,13.22-5.85,32.48-29.27,42.3L1623.3,500.38z M1555.88,425.98c10.39,0,18.51-4.91,18.51-14.73c0-10.01-8.12-14.73-18.7-14.73
		H1547v29.46H1555.88z"/>
</g>
</svg>
